<mxfile host="app.diagrams.net" modified="2023-05-22T08:16:20.626Z" agent="Mozilla/5.0 (Windows NT 10.0; Win64; x64) AppleWebKit/537.36 (KHTML, like Gecko) Chrome/113.0.0.0 Safari/537.36 Edg/113.0.1774.50" etag="85-cyNb_WREf3hV-LJqj" version="21.3.0" type="github">
  <diagram name="第 1 页" id="kgMmoRvQsMQUnGwS5dj5">
    <mxGraphModel dx="1186" dy="788" grid="1" gridSize="10" guides="1" tooltips="1" connect="1" arrows="1" fold="1" page="1" pageScale="1" pageWidth="1169" pageHeight="827" math="0" shadow="0">
      <root>
        <mxCell id="0" />
        <mxCell id="1" parent="0" />
        <mxCell id="IdxmJ_XxabhiT2lz4if3-3" value="" style="shape=actor;whiteSpace=wrap;html=1;" vertex="1" parent="1">
          <mxGeometry x="490" y="330" width="40" height="60" as="geometry" />
        </mxCell>
        <mxCell id="IdxmJ_XxabhiT2lz4if3-7" value="" style="endArrow=classic;html=1;rounded=0;shadow=0;sketch=1;curveFitting=1;jiggle=2;" edge="1" parent="1">
          <mxGeometry width="50" height="50" relative="1" as="geometry">
            <mxPoint x="480" y="360" as="sourcePoint" />
            <mxPoint x="420" y="320" as="targetPoint" />
          </mxGeometry>
        </mxCell>
        <mxCell id="IdxmJ_XxabhiT2lz4if3-8" value="用户" style="text;html=1;strokeColor=none;fillColor=none;align=center;verticalAlign=middle;whiteSpace=wrap;rounded=0;" vertex="1" parent="1">
          <mxGeometry x="480" y="390" width="60" height="30" as="geometry" />
        </mxCell>
        <mxCell id="IdxmJ_XxabhiT2lz4if3-9" value="查看已有消息模板" style="ellipse;whiteSpace=wrap;html=1;" vertex="1" parent="1">
          <mxGeometry x="310" y="250" width="100" height="60" as="geometry" />
        </mxCell>
        <mxCell id="IdxmJ_XxabhiT2lz4if3-10" value="新增/修改消息模板" style="ellipse;whiteSpace=wrap;html=1;" vertex="1" parent="1">
          <mxGeometry x="410" y="180" width="110" height="60" as="geometry" />
        </mxCell>
        <mxCell id="IdxmJ_XxabhiT2lz4if3-11" value="" style="endArrow=classic;html=1;rounded=0;shadow=0;sketch=1;curveFitting=1;jiggle=2;" edge="1" parent="1">
          <mxGeometry width="50" height="50" relative="1" as="geometry">
            <mxPoint x="500" y="320" as="sourcePoint" />
            <mxPoint x="480" y="260" as="targetPoint" />
          </mxGeometry>
        </mxCell>
        <mxCell id="IdxmJ_XxabhiT2lz4if3-12" value="" style="endArrow=classic;html=1;rounded=0;shadow=0;sketch=1;curveFitting=1;jiggle=2;" edge="1" parent="1">
          <mxGeometry width="50" height="50" relative="1" as="geometry">
            <mxPoint x="540" y="330" as="sourcePoint" />
            <mxPoint x="580" y="270" as="targetPoint" />
          </mxGeometry>
        </mxCell>
        <mxCell id="IdxmJ_XxabhiT2lz4if3-13" value="删除消息模板" style="ellipse;whiteSpace=wrap;html=1;" vertex="1" parent="1">
          <mxGeometry x="550" y="190" width="110" height="60" as="geometry" />
        </mxCell>
        <mxCell id="IdxmJ_XxabhiT2lz4if3-14" value="" style="endArrow=classic;html=1;rounded=0;shadow=0;sketch=1;curveFitting=1;jiggle=2;" edge="1" parent="1">
          <mxGeometry width="50" height="50" relative="1" as="geometry">
            <mxPoint x="565" y="360" as="sourcePoint" />
            <mxPoint x="650" y="320" as="targetPoint" />
          </mxGeometry>
        </mxCell>
        <mxCell id="IdxmJ_XxabhiT2lz4if3-15" value="选定消息模板进行消息推送" style="ellipse;whiteSpace=wrap;html=1;" vertex="1" parent="1">
          <mxGeometry x="650" y="260" width="150" height="70" as="geometry" />
        </mxCell>
      </root>
    </mxGraphModel>
  </diagram>
</mxfile>
